<?xml version="1.0" encoding="UTF-8" standalone="no"?>
<!-- Created with Inkscape (http://www.inkscape.org/) -->

<svg
   width="100"
   height="100"
   viewBox="0 0 100 100"
   version="1.1"
   id="svg1"
   inkscape:version="1.3 (0e150ed6c4, 2023-07-21)"
   sodipodi:docname="logo.svg"
   xmlns:inkscape="http://www.inkscape.org/namespaces/inkscape"
   xmlns:sodipodi="http://sodipodi.sourceforge.net/DTD/sodipodi-0.dtd"
   xmlns="http://www.w3.org/2000/svg"
   xmlns:svg="http://www.w3.org/2000/svg">
  <sodipodi:namedview
     id="namedview1"
     pagecolor="#ffffff"
     bordercolor="#000000"
     borderopacity="0.25"
     inkscape:showpageshadow="2"
     inkscape:pageopacity="0.0"
     inkscape:pagecheckerboard="0"
     inkscape:deskcolor="#d1d1d1"
     inkscape:document-units="px"
     inkscape:zoom="5.7941077"
     inkscape:cx="48.066072"
     inkscape:cy="52.898568"
     inkscape:window-width="1920"
     inkscape:window-height="1009"
     inkscape:window-x="-8"
     inkscape:window-y="-8"
     inkscape:window-maximized="1"
     inkscape:current-layer="layer1" />
  <defs
     id="defs1" />
  <g
     inkscape:label="Layer 1"
     inkscape:groupmode="layer"
     id="layer1">
    <path
       style="fill:#b800b8;fill-opacity:0;stroke:#000000;stroke-width:8;stroke-linecap:round;stroke-linejoin:round;stroke-miterlimit:10;stroke-dasharray:none;stroke-opacity:1"
       d="M 20,80 38,20 50,55 62,20 80,80"
       id="path1"
       sodipodi:nodetypes="ccccc" />
    <circle
       style="fill:#790085;fill-opacity:0;stroke:#000000;stroke-width:8;stroke-linecap:round;stroke-linejoin:round;stroke-miterlimit:10;stroke-dasharray:none;opacity:1"
       id="path2"
       cx="50"
       cy="50"
       r="43.5" />
    <path
       style="opacity:1;fill:#790085;fill-opacity:0;stroke:#790085;stroke-width:8.00001;stroke-linecap:round;stroke-linejoin:round;stroke-miterlimit:10;stroke-dasharray:none;stroke-opacity:0"
       d="M 16.894935,71.319751 C 12.257211,64.097805 10.043937,55.51646 10.698609,47.295242 11.477647,37.512261 15.387482,28.944224 22.165853,22.165853 36.053246,8.2784598 57.739018,6.7153083 73.558957,18.461341 c 11.149525,8.278332 17.190003,22.227065 15.581203,35.98028 -0.720782,6.161771 -2.738703,11.780035 -6.093311,16.964901 -0.444471,0.686974 -0.846962,1.249103 -0.894424,1.249179 -0.04746,7.4e-5 -3.499102,-11.396276 -7.67031,-25.325226 -9.546424,-31.878454 -8.745414,-29.343433 -9.515047,-30.113066 -0.927705,-0.927704 -1.699054,-1.24501 -3.012694,-1.239318 -1.320688,0.0057 -2.343786,0.481709 -3.124731,1.453746 -0.359474,0.447434 -1.560363,3.73598 -4.624142,12.662873 -2.276211,6.632163 -4.161989,12.081903 -4.190622,12.110534 -0.02863,0.02863 -1.91563,-5.397834 -4.19333,-12.058811 L 41.680274,18.035564 40.811637,17.15567 c -0.68656,-0.695455 -1.058655,-0.925477 -1.775148,-1.097362 -1.093993,-0.262444 -2.125353,-0.131287 -3.03525,0.38599 -1.527503,0.86839 -1.010423,-0.644307 -9.847391,28.808086 -4.480179,14.931816 -8.178425,27.244618 -8.218326,27.361785 -0.0399,0.117166 -0.508165,-0.465322 -1.040587,-1.294418 z"
       id="path4" />
    <path
       style="opacity:1;fill:#790085;fill-opacity:0;stroke:#790085;stroke-width:8.00001;stroke-linecap:round;stroke-linejoin:round;stroke-miterlimit:10;stroke-dasharray:none;stroke-opacity:0"
       d="M 16.894935,71.319751 C 12.257211,64.097805 10.043937,55.51646 10.698609,47.295242 11.477647,37.512261 15.387482,28.944224 22.165853,22.165853 36.053246,8.2784598 57.739018,6.7153083 73.558957,18.461341 c 11.149525,8.278332 17.190003,22.227065 15.581203,35.98028 -0.720782,6.161771 -2.738703,11.780035 -6.093311,16.964901 -0.444471,0.686974 -0.846962,1.249103 -0.894424,1.249179 -0.04746,7.4e-5 -3.499102,-11.396276 -7.67031,-25.325226 -9.546424,-31.878454 -8.745414,-29.343433 -9.515047,-30.113066 -0.927705,-0.927704 -1.699054,-1.24501 -3.012694,-1.239318 -1.320688,0.0057 -2.343786,0.481709 -3.124731,1.453746 -0.359474,0.447434 -1.560363,3.73598 -4.624142,12.662873 -2.276211,6.632163 -4.161989,12.081903 -4.190622,12.110534 -0.02863,0.02863 -1.91563,-5.397834 -4.19333,-12.058811 L 41.680274,18.035564 40.811637,17.15567 c -0.68656,-0.695455 -1.058655,-0.925477 -1.775148,-1.097362 -1.093993,-0.262444 -2.125353,-0.131287 -3.03525,0.38599 -1.527503,0.86839 -1.010423,-0.644307 -9.847391,28.808086 -4.480179,14.931816 -8.178425,27.244618 -8.218326,27.361785 -0.0399,0.117166 -0.508165,-0.465322 -1.040587,-1.294418 z"
       id="path5" />
    <path
       style="opacity:1;fill:#790085;fill-opacity:0;stroke:#790085;stroke-width:8.00001;stroke-linecap:round;stroke-linejoin:round;stroke-miterlimit:10;stroke-dasharray:none;stroke-opacity:0"
       d="M 16.894935,71.319751 C 12.257211,64.097805 10.043937,55.51646 10.698609,47.295242 11.477647,37.512261 15.387482,28.944224 22.165853,22.165853 36.053246,8.2784598 57.739018,6.7153083 73.558957,18.461341 c 11.149525,8.278332 17.190003,22.227065 15.581203,35.98028 -0.720782,6.161771 -2.738703,11.780035 -6.093311,16.964901 -0.444471,0.686974 -0.846962,1.249103 -0.894424,1.249179 -0.04746,7.4e-5 -3.499102,-11.396276 -7.67031,-25.325226 -9.546424,-31.878454 -8.745414,-29.343433 -9.515047,-30.113066 -0.927705,-0.927704 -1.699054,-1.24501 -3.012694,-1.239318 -1.320688,0.0057 -2.343786,0.481709 -3.124731,1.453746 -0.359474,0.447434 -1.560363,3.73598 -4.624142,12.662873 -2.276211,6.632163 -4.161989,12.081903 -4.190622,12.110534 -0.02863,0.02863 -1.91563,-5.397834 -4.19333,-12.058811 L 41.680274,18.035564 40.811637,17.15567 c -0.68656,-0.695455 -1.058655,-0.925477 -1.775148,-1.097362 -1.093993,-0.262444 -2.125353,-0.131287 -3.03525,0.38599 -1.527503,0.86839 -1.010423,-0.644307 -9.847391,28.808086 -4.480179,14.931816 -8.178425,27.244618 -8.218326,27.361785 -0.0399,0.117166 -0.508165,-0.465322 -1.040587,-1.294418 z"
       id="path6" />
    <path
       style="opacity:1;fill:#790085;fill-opacity:0;stroke:#790085;stroke-width:8.00001;stroke-linecap:round;stroke-linejoin:round;stroke-miterlimit:10;stroke-dasharray:none;stroke-opacity:0"
       d="M 16.894935,71.319751 C 12.257211,64.097805 10.043937,55.51646 10.698609,47.295242 11.477647,37.512261 15.387482,28.944224 22.165853,22.165853 36.053246,8.2784598 57.739018,6.7153083 73.558957,18.461341 c 11.149525,8.278332 17.190003,22.227065 15.581203,35.98028 -0.720782,6.161771 -2.738703,11.780035 -6.093311,16.964901 -0.444471,0.686974 -0.846962,1.249103 -0.894424,1.249179 -0.04746,7.4e-5 -3.499102,-11.396276 -7.67031,-25.325226 -9.546424,-31.878454 -8.745414,-29.343433 -9.515047,-30.113066 -0.927705,-0.927704 -1.699054,-1.24501 -3.012694,-1.239318 -1.320688,0.0057 -2.343786,0.481709 -3.124731,1.453746 -0.359474,0.447434 -1.560363,3.73598 -4.624142,12.662873 -2.276211,6.632163 -4.161989,12.081903 -4.190622,12.110534 -0.02863,0.02863 -1.91563,-5.397834 -4.19333,-12.058811 L 41.680274,18.035564 40.811637,17.15567 c -0.68656,-0.695455 -1.058655,-0.925477 -1.775148,-1.097362 -1.093993,-0.262444 -2.125353,-0.131287 -3.03525,0.38599 -1.527503,0.86839 -1.010423,-0.644307 -9.847391,28.808086 -4.480179,14.931816 -8.178425,27.244618 -8.218326,27.361785 -0.0399,0.117166 -0.508165,-0.465322 -1.040587,-1.294418 z"
       id="path7" />
    <path
       style="opacity:1;fill:#790085;fill-opacity:0;stroke:#790085;stroke-width:8.00001;stroke-linecap:round;stroke-linejoin:round;stroke-miterlimit:10;stroke-dasharray:none;stroke-opacity:0"
       d="M 16.894935,71.319751 C 12.257211,64.097805 10.043937,55.51646 10.698609,47.295242 11.477647,37.512261 15.387482,28.944224 22.165853,22.165853 36.053246,8.2784598 57.739018,6.7153083 73.558957,18.461341 c 11.149525,8.278332 17.190003,22.227065 15.581203,35.98028 -0.720782,6.161771 -2.738703,11.780035 -6.093311,16.964901 -0.444471,0.686974 -0.846962,1.249103 -0.894424,1.249179 -0.04746,7.4e-5 -3.499102,-11.396276 -7.67031,-25.325226 -9.546424,-31.878454 -8.745414,-29.343433 -9.515047,-30.113066 -0.927705,-0.927704 -1.699054,-1.24501 -3.012694,-1.239318 -1.320688,0.0057 -2.343786,0.481709 -3.124731,1.453746 -0.359474,0.447434 -1.560363,3.73598 -4.624142,12.662873 -2.276211,6.632163 -4.161989,12.081903 -4.190622,12.110534 -0.02863,0.02863 -1.91563,-5.397834 -4.19333,-12.058811 L 41.680274,18.035564 40.811637,17.15567 c -0.68656,-0.695455 -1.058655,-0.925477 -1.775148,-1.097362 -1.093993,-0.262444 -2.125353,-0.131287 -3.03525,0.38599 -1.527503,0.86839 -1.010423,-0.644307 -9.847391,28.808086 -4.480179,14.931816 -8.178425,27.244618 -8.218326,27.361785 -0.0399,0.117166 -0.508165,-0.465322 -1.040587,-1.294418 z"
       id="path8" />
  </g>
</svg>
